<mxfile host="app.diagrams.net" modified="2024-06-28T04:40:43.189Z" agent="Mozilla/5.0 (Macintosh; Intel Mac OS X 10_15_7) AppleWebKit/605.1.15 (KHTML, like Gecko) Version/18.0 Safari/605.1.15" version="24.6.4" etag="tRHmWzgWFBPn9M5P7fKn" type="github">
  <diagram name="Page-1" id="vWs7hlCeRP3OqgUedrx3">
    <mxGraphModel>
      <root>
        <mxCell id="0" />
        <mxCell id="1" parent="0" />
      </root>
    </mxGraphModel>
  </diagram>
</mxfile>
